<svg xmlns="http://www.w3.org/2000/svg" viewBox="0 0 64 64" width="64" height="64">
  <!-- Car body -->
  <path d="M12 32 L18 24 L46 24 L52 32 L52 44 L12 44 Z" fill="#2563eb" stroke="#1d4ed8" stroke-width="2"/>
  
  <!-- Car roof -->
  <path d="M20 24 L20 18 L44 18 L44 24" fill="#1d4ed8" stroke="#1e40af" stroke-width="1.5"/>
  
  <!-- Windows -->
  <rect x="22" y="19" width="8" height="4" fill="#e0f2fe" stroke="#0ea5e9" stroke-width="1"/>
  <rect x="34" y="19" width="8" height="4" fill="#e0f2fe" stroke="#0ea5e9" stroke-width="1"/>
  
  <!-- Wheels -->
  <circle cx="20" cy="44" r="6" fill="#374151" stroke="#111827" stroke-width="2"/>
  <circle cx="44" cy="44" r="6" fill="#374151" stroke="#111827" stroke-width="2"/>
  
  <!-- Wheel centers -->
  <circle cx="20" cy="44" r="2" fill="#9ca3af"/>
  <circle cx="44" cy="44" r="2" fill="#9ca3af"/>
  
  <!-- Headlights -->
  <circle cx="52" cy="30" r="2" fill="#fef08a" stroke="#f59e0b" stroke-width="1"/>
  <circle cx="52" cy="36" r="2" fill="#fef08a" stroke="#f59e0b" stroke-width="1"/>
  
  <!-- Grille -->
  <rect x="50" y="28" width="2" height="10" fill="#374151"/>
  
  <!-- Data visualization elements (chart bars) -->
  <rect x="4" y="12" width="3" height="8" fill="#10b981" opacity="0.8"/>
  <rect x="8" y="8" width="3" height="12" fill="#10b981" opacity="0.8"/>
  <rect x="56" y="10" width="3" height="10" fill="#10b981" opacity="0.8"/>
  <rect x="60" y="6" width="3" height="14" fill="#10b981" opacity="0.8"/>
</svg>
